<svg width="17" height="16" viewBox="0 0 17 16" fill="none" xmlns="http://www.w3.org/2000/svg">
<path fill-rule="evenodd" clip-rule="evenodd" d="M4.57554 1.59998C4.78771 1.59998 4.99119 1.68426 5.14122 1.83429C5.29125 1.98432 5.37554 2.1878 5.37554 2.39998V3.19998H6.17554C6.38771 3.19998 6.59119 3.28426 6.74122 3.43429C6.89125 3.58432 6.97554 3.7878 6.97554 3.99998C6.97554 4.21215 6.89125 4.41563 6.74122 4.56566C6.59119 4.71569 6.38771 4.79998 6.17554 4.79998H5.37554V5.59998C5.37554 5.81215 5.29125 6.01563 5.14122 6.16566C4.99119 6.31569 4.78771 6.39998 4.57554 6.39998C4.36336 6.39998 4.15988 6.31569 4.00985 6.16566C3.85982 6.01563 3.77554 5.81215 3.77554 5.59998V4.79998H2.97554C2.76336 4.79998 2.55988 4.71569 2.40985 4.56566C2.25982 4.41563 2.17554 4.21215 2.17554 3.99998C2.17554 3.7878 2.25982 3.58432 2.40985 3.43429C2.55988 3.28426 2.76336 3.19998 2.97554 3.19998H3.77554V2.39998C3.77554 2.1878 3.85982 1.98432 4.00985 1.83429C4.15988 1.68426 4.36336 1.59998 4.57554 1.59998ZM4.57554 9.59998C4.78771 9.59998 4.99119 9.68426 5.14122 9.83429C5.29125 9.98432 5.37554 10.1878 5.37554 10.4V11.2H6.17554C6.38771 11.2 6.59119 11.2843 6.74122 11.4343C6.89125 11.5843 6.97554 11.7878 6.97554 12C6.97554 12.2121 6.89125 12.4156 6.74122 12.5657C6.59119 12.7157 6.38771 12.8 6.17554 12.8H5.37554V13.6C5.37554 13.8121 5.29125 14.0156 5.14122 14.1657C4.99119 14.3157 4.78771 14.4 4.57554 14.4C4.36336 14.4 4.15988 14.3157 4.00985 14.1657C3.85982 14.0156 3.77554 13.8121 3.77554 13.6V12.8H2.97554C2.76336 12.8 2.55988 12.7157 2.40985 12.5657C2.25982 12.4156 2.17554 12.2121 2.17554 12C2.17554 11.7878 2.25982 11.5843 2.40985 11.4343C2.55988 11.2843 2.76336 11.2 2.97554 11.2H3.77554V10.4C3.77554 10.1878 3.85982 9.98432 4.00985 9.83429C4.15988 9.68426 4.36336 9.59998 4.57554 9.59998ZM10.1755 1.59998C10.3521 1.59992 10.5237 1.65827 10.6636 1.76593C10.8036 1.87358 10.9039 2.02451 10.9491 2.19518L11.8923 5.75998L14.5755 7.30718C14.6971 7.37739 14.7981 7.47838 14.8683 7.59999C14.9385 7.7216 14.9755 7.85955 14.9755 7.99998C14.9755 8.1404 14.9385 8.27835 14.8683 8.39996C14.7981 8.52157 14.6971 8.62256 14.5755 8.69278L11.8923 10.2408L10.9483 13.8048C10.9031 13.9753 10.8027 14.126 10.6629 14.2336C10.523 14.3411 10.3515 14.3994 10.1751 14.3994C9.99872 14.3994 9.82726 14.3411 9.68742 14.2336C9.54758 14.126 9.44722 13.9753 9.40194 13.8048L8.45874 10.24L5.77554 8.69278C5.65393 8.62256 5.55295 8.52157 5.48274 8.39996C5.41253 8.27835 5.37557 8.1404 5.37557 7.99998C5.37557 7.85955 5.41253 7.7216 5.48274 7.59999C5.55295 7.47838 5.65393 7.37739 5.77554 7.30718L8.45874 5.75918L9.40274 2.19518C9.4479 2.02464 9.54816 1.87381 9.68793 1.76617C9.8277 1.65852 9.99912 1.6001 10.1755 1.59998V1.59998Z" fill="white"/>
</svg>
